#!OML:ASF C:\ViconDB\ViconDB\414\Spring2016\042216\male.ASF
:FULLY-SPECIFIED
:DEGREES
613
root 47.1792 17.5605 12.6189 197.121 86.0101 194.783
lowerback -4.9133 -1.57858 3.70966
upperback -1.06931 -2.26714 -0.373127
thorax 1.49258 -1.11189 -2.59927
lowerneck 0.0698791 12.5213 0.883973
upperneck -2.38502 16.7368 -8.77078
head 0.114775 8.45796 -2.78031
rclavicle 4.64418e-014 -3.72721e-016
rhumerus -35.1244 -5.29921 -90.4961
rradius 33.4832
rwrist 32.5984
rhand 16.36 -17.4914
rfingers 7.12502
rthumb 41.1302 -42.3662
lclavicle 4.64418e-014 -3.72721e-016
lhumerus -37.2507 12.024 87.5127
lradius 34.9739
lwrist -12.4967
lhand -5.79724 13.5357
lfingers 7.12502
lthumb 20.0273 42.5235
rfemur -6.29396 10.0697 24.4016
rtibia 27.5039
rfoot -22.4424 -10.9334
rtoes 0.155143
lfemur -7.00315 -4.45017 -20.7271
ltibia 31.5546
lfoot -26.0866 18.3436
ltoes -18.9251
614
root 47.1838 17.5573 12.6352 195.045 86.1807 192.67
lowerback -5.08695 -1.55223 3.30721
upperback -1.02829 -2.21859 -0.382641
thorax 1.65052 -1.08557 -2.38768
lowerneck 0.0725264 12.5822 0.795631
upperneck -2.4583 16.812 -8.7257
head 0.0829798 8.49776 -2.75491
rclavicle -1.58562e-015 1.76421e-015
rhumerus -34.962 -5.17667 -90.616
rradius 33.6146
rwrist 32.1969
rhand 16.5656 -17.4428
rfingers 7.12502
rthumb 41.3232 -42.2556
lclavicle -1.58562e-015 1.76421e-015
lhumerus -37.4932 12.2967 86.9968
lradius 34.3467
lwrist -13.1452
lhand -5.72119 12.7212
lfingers 7.12502
lthumb 20.1004 41.7014
rfemur -6.2797 10.6859 24.3179
rtibia 27.4984
rfoot -22.5361 -11.4214
rtoes 0.226799
lfemur -7.04335 -4.33017 -20.8762
ltibia 31.5493
lfoot -24.9991 18.7174
ltoes -20.8454
615
root 47.1866 17.5675 12.6403 193.813 86.2626 191.382
lowerback -5.28042 -1.54528 3.1783
upperback -0.965914 -2.20985 -0.413585
thorax 1.82714 -1.07784 -2.35468
lowerneck 0.0280431 12.6559 0.724964
upperneck -2.55775 16.9038 -8.71294
head 0.0560953 8.54583 -2.73936
rclavicle 1.52567e-014 -4.29872e-015
rhumerus -34.7563 -5.11329 -90.7212
rradius 33.7839
rwrist 31.6569
rhand 17.1766 -17.4936
rfingers 7.12502
rthumb 41.8964 -42.1183
lclavicle 1.52567e-014 -4.29872e-015
lhumerus -37.5155 12.5866 86.5738
lradius 33.9178
lwrist -13.3579
lhand -5.35649 13.7432
lfingers 7.12502
lthumb 20.4509 42.6862
rfemur -6.35612 10.5586 24.1676
rtibia 27.496
rfoot -22.5645 -11.1506
rtoes 0.415021
lfemur -7.10531 -4.37386 -20.9813
ltibia 31.5298
lfoot -23.7131 19.083
ltoes -22.5015
616
root 47.1855 17.5629 12.6413 194.619 86.2669 192.183
lowerback -5.40417 -1.5354 3.265
upperback -0.89794 -2.20735 -0.423121
thorax 1.96279 -1.07288 -2.41857
lowerneck 0.0930015 12.7173 0.741769
upperneck -2.75077 16.9732 -8.80172
head -0.00265776 8.58795 -2.78168
rclavicle -2.79463e-014 4.67144e-015
rhumerus -34.6062 -5.13378 -90.7806
rradius 33.955
rwrist 31.4276
rhand 17.2757 -17.3897
rfingers 7.12502
rthumb 41.9893 -41.9834
lclavicle -2.79463e-014 4.67144e-015
lhumerus -37.7165 13.0179 86.107
lradius 33.5717
lwrist -13.5696
lhand -5.97869 13.5827
lfingers 7.12502
lthumb 19.8528 42.5887
rfemur -6.35428 10.3786 24.2048
rtibia 27.4749
rfoot -22.5566 -10.9668
rtoes 0.261749
lfemur -7.08939 -4.53966 -20.9428
ltibia 31.5078
lfoot -22.8718 19.4533
ltoes -23.8154
617
root 47.1836 17.5625 12.6427 195.462 86.2716 192.976
lowerback -5.52901 -1.51223 3.34551
upperback -0.864725 -2.18642 -0.413149
thorax 2.06551 -1.05949 -2.45698
lowerneck 0.184481 12.7616 0.782661
upperneck -2.92492 17.0227 -8.96196
head -0.0519583 8.62124 -2.85153
rclavicle -1.40966e-014 1.73937e-015
rhumerus -34.5134 -5.24512 -90.7522
rradius 34.1229
rwrist 31.3957
rhand 17.3786 -17.3674
rfingers 7.12502
rthumb 42.0856 -41.9287
lclavicle -1.40966e-014 1.73937e-015
lhumerus -37.9838 13.8665 85.4646
lradius 33.1184
lwrist -14.5067
lhand -5.55346 13.8244
lfingers 7.12502
lthumb 20.2616 42.7876
rfemur -6.43116 10.0623 24.2063
rtibia 27.4509
rfoot -22.5157 -10.6325
rtoes 0.143537
lfemur -7.14081 -4.42588 -20.867
ltibia 31.4823
lfoot -22.6954 19.4437
ltoes -24.129
618
root 47.1838 17.5647 12.644 195.383 86.3418 192.912
lowerback -5.5925 -1.49603 3.34162
upperback -0.80883 -2.16781 -0.442834
thorax 2.15887 -1.04789 -2.48746
lowerneck 0.364037 12.8111 0.989513
upperneck -3.19088 17.0734 -9.22259
head -0.121079 8.65887 -2.98895
rclavicle -7.09723e-015 1.73937e-015
rhumerus -34.4337 -5.21008 -90.8533
rradius 34.2884
rwrist 30.9053
rhand 17.3271 -17.439
rfingers 7.12502
rthumb 42.0375 -42.0165
lclavicle -7.09723e-015 1.73937e-015
lhumerus -38.1798 14.2541 84.9152
lradius 32.7381
lwrist -14.9168
lhand -5.76065 14.0189
lfingers 7.12502
lthumb 20.0624 43.0031
rfemur -6.4375 10.0777 24.166
rtibia 27.4459
rfoot -22.5102 -10.5687
rtoes 0.321401
lfemur -7.08076 -4.63968 -20.9234
ltibia 31.4515
lfoot -24.3168 19.326
ltoes -21.7164
619
root 47.1795 17.5648 12.6458 195.573 86.3356 193.043
lowerback -5.62887 -1.48915 3.37282
upperback -0.822984 -2.161 -0.454592
thorax 2.16343 -1.04418 -2.51754
lowerneck 0.552648 12.8589 1.05973
upperneck -3.4378 17.1203 -9.36432
head -0.209273 8.6944 -3.06989
rclavicle -6.90621e-015 -2.48481e-016
rhumerus -34.4169 -5.24375 -90.8775
rradius 34.3823
rwrist 30.8182
rhand 17.5542 -17.3964
rfingers 7.12502
rthumb 42.2502 -41.9021
lclavicle -6.90621e-015 -2.48481e-016
lhumerus -38.4684 15.0956 84.1674
lradius 32.182
lwrist -15.9856
lhand -5.49409 13.5869
lfingers 7.12502
lthumb 20.3186 42.5441
rfemur -6.50401 10.3925 24.1977
rtibia 27.4638
rfoot -22.5971 -10.8123
rtoes 0.366809
lfemur -7.12729 -4.75306 -20.9131
ltibia 31.3966
lfoot -25.872 18.957
ltoes -19.1133
620
root 47.1754 17.5648 12.6474 195.971 86.3364 193.409
lowerback -5.62364 -1.48527 3.40125
upperback -0.851459 -2.15663 -0.447354
thorax 2.13064 -1.04267 -2.52495
lowerneck 0.731823 12.9193 1.10906
upperneck -3.62118 17.1885 -9.49848
head -0.277052 8.73906 -3.14142
rclavicle -2.43418e-014 -9.93923e-016
rhumerus -34.4223 -5.33442 -90.8607
rradius 34.3986
rwrist 30.8712
rhand 17.7039 -17.2911
rfingers 7.12502
rthumb 42.3904 -41.749
lclavicle -2.43418e-014 -9.93923e-016
lhumerus -38.8176 15.343 83.7897
lradius 31.8967
lwrist -16.1275
lhand -5.66431 13.7536
lfingers 7.12502
lthumb 20.155 42.7281
rfemur -6.58857 9.97293 24.1585
rtibia 27.4762
rfoot -22.5415 -10.3873
rtoes 0.55332
lfemur -7.1471 -4.73477 -20.8834
ltibia 31.341
lfoot -28.8715 17.9764
ltoes -13.6431
621
root 47.1684 17.5647 12.6488 195.478 86.3399 192.894
lowerback -5.5577 -1.48629 3.3677
upperback -0.874567 -2.15282 -0.459863
thorax 2.07098 -1.04245 -2.51609
lowerneck 0.781965 12.9689 1.16079
upperneck -3.69407 17.2518 -9.61076
head -0.289891 8.77508 -3.19047
rclavicle 1.57537e-014 -5.86415e-015
rhumerus -34.3711 -5.3865 -90.8577
rradius 34.3841
rwrist 30.6946
rhand 17.8166 -17.2548
rfingers 7.12502
rthumb 42.4959 -41.6765
lclavicle 1.57537e-014 -5.86415e-015
lhumerus -39.0932 15.9475 83.1685
lradius 31.317
lwrist -16.8185
lhand -6.02297 13.3099
lfingers 7.12502
lthumb 19.8103 42.3204
rfemur -6.63451 9.89907 24.1081
rtibia 27.4681
rfoot -22.5174 -10.32
rtoes 0.458691
lfemur -7.15544 -4.81931 -20.9222
ltibia 31.3135
lfoot -29.1159 17.9085
ltoes -13.0256
622
root 47.1612 17.5682 12.6496 195.45 86.3422 192.827
lowerback -5.5027 -1.49739 3.34179
upperback -0.908588 -2.16369 -0.438656
thorax 2.00622 -1.04967 -2.47787
lowerneck 0.828621 13.0219 1.16829
upperneck -3.74666 17.3208 -9.71534
head -0.299886 8.81403 -3.22915
rclavicle 3.96793e-015 3.03147e-015
rhumerus -34.3097 -5.26742 -90.8716
rradius 34.2855
rwrist 30.48
rhand 17.8753 -17.2275
rfingers 7.12502
rthumb 42.5508 -41.6303
lclavicle 3.96793e-015 3.03147e-015
lhumerus -39.4009 16.4502 82.659
lradius 30.9615
lwrist -17.3609
lhand -5.91018 13.1076
lfingers 7.12502
lthumb 19.9187 42.1068
rfemur -6.70981 9.80984 24.0826
rtibia 27.4759
rfoot -22.4893 -10.2445
rtoes 0.294803
lfemur -7.22547 -4.83831 -20.9316
ltibia 31.2852
lfoot -28.9121 18.0629
ltoes -13.4434
623
root 47.1532 17.569 12.6491 195.632 86.3366 192.994
lowerback -5.4074 -1.49013 3.3748
upperback -0.924977 -2.15234 -0.436977
thorax 1.93567 -1.04545 -2.49039
lowerneck 0.817471 13.0665 1.24433
upperneck -3.73047 17.3848 -9.81245
head -0.272887 8.84603 -3.26736
rclavicle -1.87448e-015 -3.67752e-015
rhumerus -34.2145 -5.25507 -90.8733
rradius 34.1594
rwrist 30.4374
rhand 18.2347 -17.2075
rfingers 7.12502
rthumb 42.8872 -41.4932
lclavicle -1.87448e-015 -3.67752e-015
lhumerus -39.6365 16.5191 82.4254
lradius 30.8636
lwrist -17.4806
lhand -5.48847 14.0068
lfingers 7.12502
lthumb 20.324 42.9634
rfemur -6.78105 9.59775 24.0574
rtibia 27.494
rfoot -22.4624 -10.033
rtoes 0.410624
lfemur -7.24839 -4.86239 -20.9268
ltibia 31.254
lfoot -28.8585 18.1196
ltoes -13.4804
624
root 47.1437 17.5669 12.648 194.933 86.3131 192.328
lowerback -5.25078 -1.50073 3.36081
upperback -0.948531 -2.15954 -0.451047
thorax 1.82338 -1.05173 -2.49178
lowerneck 0.824112 13.1018 1.27148
upperneck -3.69973 17.4356 -9.85032
head -0.255028 8.87101 -3.28087
rclavicle 1.64991e-014 1.83876e-015
rhumerus -34.127 -5.36101 -90.8313
rradius 33.9542
rwrist 30.5723
rhand 18.2723 -17.1897
rfingers 7.12502
rthumb 42.9223 -41.463
lclavicle 1.64991e-014 1.83876e-015
lhumerus -39.8537 16.8919 82.0382
lradius 30.5801
lwrist -17.6999
lhand -5.57804 14.5295
lfingers 7.12502
lthumb 20.2379 43.4952
rfemur -6.77939 9.54169 24.0107
rtibia 27.5096
rfoot -22.5068 -10.0038
rtoes 0.578929
lfemur -7.2241 -4.90189 -20.9775
ltibia 31.2297
lfoot -28.8582 18.1538
ltoes -13.4545
625
root 47.1364 17.5669 12.6473 195.01 86.2804 192.408
lowerback -5.18758 -1.50233 3.39241
upperback -0.962072 -2.1609 -0.45077
thorax 1.77285 -1.05343 -2.50691
lowerneck 0.825574 13.1435 1.35697
upperneck -3.6239 17.4997 -9.91881
head -0.212734 8.90097 -3.30947
rclavicle 4.51614e-015 -2.5345e-015
rhumerus -34.0358 -5.4896 -90.7594
rradius 33.6558
rwrist 31.2042
rhand 18.2298 -16.7999
rfingers 7.12502
rthumb 42.8826 -41.0872
lclavicle 4.51614e-015 -2.5345e-015
lhumerus -40.1832 17.2279 81.6528
lradius 30.4609
lwrist -18.0018
lhand -5.35013 14.5689
lfingers 7.12502
lthumb 20.457 43.5112
rfemur -6.79304 9.81475 24.0536
rtibia 27.5319
rfoot -22.524 -10.3214
rtoes 0.633567
lfemur -7.2349 -4.92824 -20.9715
ltibia 31.2009
lfoot -28.872 18.173
ltoes -13.4541
626
root 47.1303 17.5704 12.6468 194.301 86.2656 191.637
lowerback -5.23655 -1.4814 3.3786
upperback -0.968211 -2.1334 -0.466176
thorax 1.79566 -1.03929 -2.51485
lowerneck 0.781384 13.1587 1.38245
upperneck -3.53337 17.5291 -9.96266
head -0.167849 8.91267 -3.31778
rclavicle -4.17261e-014 -2.98177e-016
rhumerus -33.9389 -5.63813 -90.6746
rradius 33.3478
rwrist 31.8157
rhand 18.0552 -16.4784
rfingers 7.12502
rthumb 42.7193 -40.8228
lclavicle -4.17261e-014 -2.98177e-016
lhumerus -40.3756 17.7016 81.2229
lradius 30.2291
lwrist -18.6882
lhand -4.7813 14.7222
lfingers 7.12502
lthumb 21.0035 43.6049
rfemur -6.89739 9.79968 23.9835
rtibia 27.5569
rfoot -22.4822 -10.3643
rtoes 0.473653
lfemur -7.32889 -4.82672 -21.0083
ltibia 31.1754
lfoot -28.8425 18.0579
ltoes -13.4525
